<svg width="576" height="405" viewBox="0 0 576 405" fill="none" xmlns="http://www.w3.org/2000/svg">
<path d="M313.329 41.3752L274.334 63.9329L235.339 86.4905L196.344 109.048L157.349 131.606L118.354 154.163L79.3585 176.721" stroke="#D2DBFC" stroke-width="2.27302" stroke-linecap="round" stroke-linejoin="round"/>
<path d="M95.2773 198.76L56.2821 221.318L17.0341 198.76L56.0292 176.202L95.2773 198.76Z" stroke="#D2DBFC" stroke-width="2.27302" stroke-linecap="round" stroke-linejoin="round"/>
<path d="M89.9515 374.497L50.9563 397.054L11.7083 374.497L50.7034 351.939L89.9515 374.497Z" stroke="#D2DBFC" stroke-width="2.27302" stroke-linecap="round" stroke-linejoin="round"/>
<path d="M378.509 334.639L339.514 357.197L300.266 334.639L339.261 312.082L378.509 334.639Z" stroke="#D2DBFC" stroke-width="2.27302" stroke-linecap="round" stroke-linejoin="round"/>
<path d="M574.364 223.836L535.369 246.393L496.12 223.836L535.116 201.278L574.364 223.836Z" stroke="#D2DBFC" stroke-width="2.27302" stroke-linecap="round" stroke-linejoin="round"/>
<path d="M40.6163 244.409L79.6114 221.836L118.607 199.279L157.602 176.721L196.597 154.163L235.592 131.606L274.587 109.048L313.582 86.4905L352.577 63.9329" stroke="#D2DBFC" stroke-width="2.27302" stroke-linecap="round" stroke-linejoin="round"/>
<path d="M79.8647 266.966L118.86 244.394L157.855 221.836L196.85 199.279L235.845 176.721L274.84 154.163L313.835 131.606L352.83 109.048L391.826 86.4905" stroke="#D2DBFC" stroke-width="2.27302" stroke-linecap="round" stroke-linejoin="round"/>
<path d="M119.127 289.524L158.122 266.966L197.117 244.409L236.113 221.851L275.108 199.279L314.103 176.721L353.098 154.163L392.093 131.606L431.073 109.048" stroke="#D2DBFC" stroke-width="2.27302" stroke-linecap="round" stroke-linejoin="round"/>
<path d="M158.375 312.081L197.37 289.524L236.365 266.966L275.36 244.409L314.355 221.836L353.351 199.279L392.346 176.721L431.341 154.163L470.321 131.606" stroke="#D2DBFC" stroke-width="2.27302" stroke-linecap="round" stroke-linejoin="round"/>
<path d="M197.624 334.639L236.619 312.081L275.614 289.524L314.61 266.966L353.605 244.394L392.6 221.836L431.595 199.279L470.575 176.721L509.57 154.163" stroke="#D2DBFC" stroke-width="2.27302" stroke-linecap="round" stroke-linejoin="round"/>
<path d="M236.872 357.196L275.867 334.639L314.862 312.081L353.857 289.524L392.852 266.951L431.848 244.394L470.843 221.836L509.823 199.278" stroke="#D2DBFC" stroke-width="2.27302" stroke-linecap="round" stroke-linejoin="round"/>
<path d="M510.091 244.394H510.076L471.096 266.951H471.081M237.125 402.312L315.1 357.196H315.115M393.105 312.081L432.1 289.524L471.081 266.951M471.081 266.951L432.086 289.509" stroke="#D2DBFC" stroke-width="2.27302" stroke-linecap="round" stroke-linejoin="round"/>
<path d="M509.569 154.163L470.321 131.606L431.073 109.048L391.825 86.4905L352.577 63.9329L313.329 41.3752" stroke="#D2DBFC" stroke-width="2.27302" stroke-linecap="round" stroke-linejoin="round"/>
<path d="M313.329 41.3752L352.577 63.9329L391.825 86.4905L431.073 109.048L470.321 131.606L509.569 154.163" stroke="#D2DBFC" stroke-width="2.27302" stroke-linecap="round" stroke-linejoin="round"/>
<path d="M470.574 176.721L431.341 154.163L392.093 131.606L352.83 109.048L313.582 86.4905L274.334 63.9329" stroke="#D2DBFC" stroke-width="2.27302" stroke-linecap="round" stroke-linejoin="round"/>
<path d="M274.334 63.9329L313.582 86.4905L352.83 109.048L392.093 131.606L431.341 154.163L470.574 176.721L509.823 199.279" stroke="#D2DBFC" stroke-width="2.27302" stroke-linecap="round" stroke-linejoin="round"/>
<path d="M235.339 86.4905L274.587 109.048L313.835 131.606L353.098 154.163L392.346 176.721L431.594 199.279L470.842 221.836" stroke="#D2DBFC" stroke-width="2.27302" stroke-linecap="round" stroke-linejoin="round"/>
<path d="M510.075 244.394L470.842 221.836L431.594 199.279L392.346 176.721L353.098 154.163L313.835 131.606L274.587 109.048L235.339 86.4905" stroke="#D2DBFC" stroke-width="2.27302" stroke-linecap="round" stroke-linejoin="round"/>
<path d="M471.08 266.951L431.847 244.394L392.599 221.836L353.351 199.279L314.103 176.721L274.84 154.163L235.592 131.606L196.344 109.048L235.592 131.606L274.84 154.163L314.103 176.721L353.351 199.279L392.599 221.836L431.847 244.394" stroke="#D2DBFC" stroke-width="2.27302" stroke-linecap="round" stroke-linejoin="round"/>
<path d="M432.085 289.509L392.852 266.951L353.604 244.394L314.356 221.836L275.108 199.279L235.845 176.721L196.597 154.163L157.349 131.606L196.597 154.163L235.845 176.721L275.108 199.279L314.356 221.836L353.604 244.394L392.852 266.951" stroke="#D2DBFC" stroke-width="2.27302" stroke-linecap="round" stroke-linejoin="round"/>
<path d="M118.354 154.163L157.602 176.721L196.85 199.279L236.113 221.851L275.361 244.409L314.609 266.966L353.857 289.524" stroke="#D2DBFC" stroke-width="2.27302" stroke-linecap="round" stroke-linejoin="round"/>
<path d="M393.09 312.081L353.857 289.524L314.609 266.966L275.361 244.409L236.113 221.851L196.85 199.279L157.602 176.721L118.354 154.163" stroke="#D2DBFC" stroke-width="2.27302" stroke-linecap="round" stroke-linejoin="round"/>
<path d="M79.3585 176.721L118.607 199.279L157.855 221.836L197.117 244.409L236.366 266.966L275.614 289.524" stroke="#D2DBFC" stroke-width="2.27302" stroke-linecap="round" stroke-linejoin="round"/>
<path d="M314.862 312.081L275.614 289.524L236.366 266.966L197.117 244.409L157.855 221.836L118.607 199.279L79.3585 176.721" stroke="#D2DBFC" stroke-width="2.27302" stroke-linecap="round" stroke-linejoin="round"/>
<path d="M79.6117 221.836L118.86 244.394L158.123 266.966L197.371 289.524L236.619 312.081L275.867 334.639" stroke="#D2DBFC" stroke-width="2.27302" stroke-linecap="round" stroke-linejoin="round"/>
<path d="M315.1 357.197L275.867 334.639L236.619 312.081L197.371 289.524L158.123 266.966L118.86 244.394L79.6117 221.836" stroke="#D2DBFC" stroke-width="2.27302" stroke-linecap="round" stroke-linejoin="round"/>
<path d="M276.105 379.754L236.871 357.197L197.623 334.639L158.375 312.082L119.127 289.524L79.8644 266.966L40.6163 244.409" stroke="#D2DBFC" stroke-width="2.27302" stroke-linecap="round" stroke-linejoin="round"/>
<path d="M510.091 244.394H510.076" stroke="#D2DBFC" stroke-width="2.27302" stroke-linecap="round" stroke-linejoin="round"/>
<path d="M471.096 266.951H471.081" stroke="#D2DBFC" stroke-width="2.27302" stroke-linecap="round" stroke-linejoin="round"/>
<path d="M432.101 289.524L432.086 289.509" stroke="#D2DBFC" stroke-width="2.27302" stroke-linecap="round" stroke-linejoin="round"/>
<path d="M393.105 312.082H393.09" stroke="#D2DBFC" stroke-width="2.27302" stroke-linecap="round" stroke-linejoin="round"/>
<path d="M315.115 357.197H315.1" stroke="#D2DBFC" stroke-width="2.27302" stroke-linecap="round" stroke-linejoin="round"/>
<path d="M40.6166 244.409L1.63635 266.966" stroke="#D2DBFC" stroke-width="2.27302" stroke-linecap="round" stroke-linejoin="round"/>
<path d="M1.87415 312.082L40.8841 289.524L79.8644 266.966" stroke="#D2DBFC" stroke-width="2.27302" stroke-linecap="round" stroke-linejoin="round"/>
<path d="M41.1373 334.639L80.1324 312.082L119.128 289.524" stroke="#D2DBFC" stroke-width="2.27302" stroke-linecap="round" stroke-linejoin="round"/>
<path d="M119.633 379.754L158.628 357.197L197.623 334.639" stroke="#D2DBFC" stroke-width="2.27302" stroke-linecap="round" stroke-linejoin="round"/>
<path d="M119.633 379.754L158.881 402.327L197.876 379.754L236.871 357.197" stroke="#D2DBFC" stroke-width="2.27302" stroke-linecap="round" stroke-linejoin="round"/>
<path d="M1.63635 266.966L40.8844 289.524L80.1324 312.082L119.38 334.639L158.628 357.197L197.876 379.754" stroke="#D2DBFC" stroke-width="2.27302" stroke-linecap="round" stroke-linejoin="round"/>
<path d="M237.125 402.312L197.877 379.754L158.628 357.197L119.38 334.639L80.1324 312.082L40.8844 289.524L1.63635 266.966" stroke="#D2DBFC" stroke-width="2.27302" stroke-linecap="round" stroke-linejoin="round"/>
<path d="M119.633 379.754L80.3851 357.197L41.1371 334.639L1.87415 312.081" stroke="#D2DBFC" stroke-width="2.27302" stroke-linecap="round" stroke-linejoin="round"/>
<path d="M1.87415 312.081L41.1371 334.639L80.3851 357.197L119.633 379.754L158.881 402.327L197.876 379.754" stroke="#D2DBFC" stroke-width="2.27302" stroke-linecap="round" stroke-linejoin="round"/>
<path d="M356.892 243.713L258.786 300.099L160.696 243.713C161.99 241.506 163.835 239.625 166.141 238.292L251.362 189.311C255.96 186.674 261.628 186.674 266.24 189.311L351.446 238.292C353.752 239.625 355.612 241.506 356.892 243.713Z" fill="#012A7A" stroke="#012A7A" stroke-width="2.27302" stroke-linecap="round" stroke-linejoin="round"/>
<path d="M358.216 38.4872L273.01 87.4682C268.413 90.1194 265.571 95.0071 265.571 100.295V198.242C265.571 203.53 268.413 208.417 273.01 211.069L358.216 260.05C362.813 262.701 368.497 262.701 373.094 260.05L458.3 211.069C462.897 208.417 465.739 203.53 465.739 198.242V100.28C465.739 94.9923 462.897 90.1046 458.3 87.4534L373.094 38.4872C368.497 35.836 362.813 35.836 358.216 38.4872Z" fill="url(#paint0_linear_2001_514)" stroke="#012A7A" stroke-width="2.27302" stroke-miterlimit="10"/>
<mask id="mask0_2001_514" style="mask-type:luminance" maskUnits="userSpaceOnUse" x="380" y="114" width="76" height="128">
<path d="M381.232 241.387L380.994 156.874L454.863 114.41L455.116 198.938L381.232 241.387Z" fill="white"/>
</mask>
<g mask="url(#mask0_2001_514)">
<path d="M453.39 115.269L382.467 156.03C381.649 156.504 380.994 157.629 380.994 158.577L381.054 180.542C381.054 181.475 381.708 181.846 382.527 181.387L394.355 174.588C395.173 174.114 395.828 174.499 395.828 175.432L395.917 205.855C395.917 206.788 395.262 207.914 394.444 208.388L382.616 215.186C381.798 215.66 381.143 216.786 381.143 217.733L381.202 239.699C381.202 240.632 381.857 241.017 382.675 240.543L453.599 199.782C454.417 199.308 455.072 198.183 455.072 197.235L455.012 175.269C455.012 174.336 454.357 173.951 453.539 174.425L441.711 181.224C440.908 181.683 440.238 181.327 440.238 180.379L440.149 149.957C440.149 149.024 440.804 147.883 441.622 147.409L453.45 140.611C454.268 140.137 454.923 139.011 454.923 138.078L454.863 116.113C454.863 115.18 454.209 114.795 453.39 115.269Z" fill="white"/>
</g>
<path d="M365.655 160.147V160.162V253.355" stroke="#012A7A" stroke-width="2.27302" stroke-linecap="round" stroke-linejoin="round"/>
<path d="M375.132 143.81H375.147V143.795L456.217 97.199" stroke="#012A7A" stroke-width="2.27302" stroke-linecap="round" stroke-linejoin="round"/>
<path d="M356.147 143.795L275.077 97.199" stroke="#012A7A" stroke-width="2.27302" stroke-linecap="round" stroke-linejoin="round"/>
<path d="M365.655 157.807V262.019C363.081 262.019 360.507 261.368 358.216 260.035L273.01 211.054C268.398 208.417 265.571 203.515 265.571 198.227V100.28C265.571 97.6287 266.27 95.0812 267.565 92.8743L358.216 144.98C362.813 147.632 365.655 152.519 365.655 157.807Z" fill="#012A7A" stroke="#012A7A" stroke-width="2.27302" stroke-linecap="round" stroke-linejoin="round"/>
<path d="M256.138 36.3839L170.932 85.3649C166.334 88.0161 163.493 92.9039 163.493 98.1915V196.139C163.493 201.426 166.334 206.314 170.932 208.965L256.138 257.946C260.735 260.597 266.418 260.597 271.016 257.946L356.222 208.965C360.819 206.314 363.661 201.426 363.661 196.139V98.1915C363.661 92.9039 360.819 88.0161 356.222 85.3649L271.016 36.3839C266.418 33.7327 260.735 33.7327 256.138 36.3839Z" fill="#FF6C37" stroke="#012A7A" stroke-width="2.27302" stroke-miterlimit="10"/>
<mask id="mask1_2001_514" style="mask-type:luminance" maskUnits="userSpaceOnUse" x="278" y="112" width="76" height="128">
<path d="M279.155 239.298L278.917 154.785L352.801 112.321L353.039 196.834L279.155 239.298Z" fill="white"/>
</mask>
<g mask="url(#mask1_2001_514)">
<path d="M313.761 177.091C312.943 177.565 312.273 177.18 312.273 176.247L312.214 154.281C312.214 153.348 312.869 152.208 313.687 151.734L318.12 149.186C318.939 148.712 319.608 149.097 319.608 150.031L319.668 171.996C319.668 172.929 319.013 174.069 318.195 174.543L313.761 177.091ZM351.313 113.165L280.39 153.926C279.572 154.4 278.917 155.526 278.917 156.459L279.155 237.595C279.155 238.528 279.825 238.913 280.643 238.439L310.934 221.021C311.738 220.562 312.407 219.421 312.407 218.474L312.348 196.508C312.348 195.575 313.002 194.435 313.821 193.961L351.492 172.307C352.31 171.833 352.965 170.707 352.965 169.774L352.801 113.98C352.801 113.047 352.131 112.676 351.313 113.15" fill="white"/>
</g>
<path d="M263.577 158.059V251.266" stroke="#012A7A" stroke-width="2.27302" stroke-linecap="round" stroke-linejoin="round"/>
<path d="M273.055 141.707H273.07V141.692L341.151 102.561" stroke="#012A7A" stroke-width="2.27302" stroke-linecap="round" stroke-linejoin="round"/>
<path d="M254.07 141.707L172.985 95.0959" stroke="#012A7A" stroke-width="2.27302" stroke-linecap="round" stroke-linejoin="round"/>
<path d="M263.563 155.719V259.931C260.989 259.931 258.415 259.279 256.124 257.946L170.918 208.965C166.305 206.329 163.479 201.426 163.479 196.139V98.1915C163.479 95.5403 164.178 92.9928 165.472 90.7859L256.124 142.892C260.721 145.543 263.563 150.431 263.563 155.719Z" fill="#012A7A" stroke="#012A7A" stroke-width="2.27302" stroke-linecap="round" stroke-linejoin="round"/>
<path d="M334.858 86.0609L270.168 48.8845" stroke="white" stroke-width="4.54604" stroke-linecap="round" stroke-linejoin="round"/>
<path d="M352.369 103.716C352.369 99.021 349.855 94.6962 345.793 92.356L344.097 91.3784" stroke="white" stroke-width="4.54604" stroke-linecap="round" stroke-linejoin="round"/>
<path d="M153.704 156.104L68.4978 205.085C63.9005 207.736 61.0588 212.624 61.0588 217.911V315.858C61.0588 321.146 63.9005 326.034 68.4978 328.685L153.704 377.666C158.301 380.317 163.985 380.317 168.582 377.666L253.788 328.685C258.385 326.034 261.227 321.146 261.227 315.858V217.911C261.227 212.624 258.385 207.736 253.788 205.085L168.582 156.104C163.985 153.452 158.301 153.452 153.704 156.104Z" fill="url(#paint1_linear_2001_514)" stroke="#012A7A" stroke-width="2.27302" stroke-miterlimit="10"/>
<mask id="mask2_2001_514" style="mask-type:luminance" maskUnits="userSpaceOnUse" x="176" y="232" width="75" height="128">
<path d="M176.734 359.018L176.481 274.505L250.365 232.041L250.603 316.554L176.734 359.018Z" fill="white"/>
</mask>
<g mask="url(#mask2_2001_514)">
<path d="M211.325 296.81C210.507 297.284 209.852 296.899 209.852 295.966L209.793 274.001C209.793 273.068 210.448 271.942 211.266 271.468L215.699 268.921C216.518 268.447 217.172 268.817 217.172 269.765L217.232 291.73C217.232 292.663 216.577 293.804 215.759 294.278L211.325 296.825M248.892 232.885L177.969 273.646C177.151 274.119 176.496 275.245 176.496 276.193L176.734 357.315C176.734 358.248 177.389 358.633 178.207 358.159L208.498 340.741C209.317 340.267 209.971 339.126 209.971 338.193L209.912 316.228C209.912 315.295 210.567 314.154 211.385 313.68L215.818 311.133C216.637 310.659 217.291 311.044 217.291 311.977L217.351 333.942C217.351 334.875 218.02 335.261 218.839 334.787L249.13 317.368C249.948 316.895 250.603 315.769 250.603 314.821L250.365 233.699C250.365 232.766 249.71 232.381 248.892 232.855" fill="white"/>
</g>
<path d="M161.158 277.779V277.794V370.986" stroke="#012A7A" stroke-width="2.27302" stroke-linecap="round" stroke-linejoin="round"/>
<path d="M170.636 261.427H170.651L251.706 214.831" stroke="#012A7A" stroke-width="2.27302" stroke-linecap="round" stroke-linejoin="round"/>
<path d="M151.65 261.427L70.5651 214.816" stroke="#012A7A" stroke-width="2.27302" stroke-linecap="round" stroke-linejoin="round"/>
<path d="M161.143 275.438V379.651C158.569 379.651 155.995 378.999 153.704 377.666L68.4978 328.685C63.8856 326.049 61.0588 321.146 61.0588 315.858V217.911C61.0588 215.26 61.7581 212.712 63.0525 210.506L153.704 262.612C158.301 265.263 161.143 270.151 161.143 275.438Z" fill="#012A7A" stroke="#012A7A" stroke-width="2.27302" stroke-linecap="round" stroke-linejoin="round"/>
<path d="M237.244 114.558L241.826 126.896L254.22 131.458L241.826 136.035L237.244 148.372L232.662 136.035L220.253 131.458L232.662 126.896L237.244 114.558Z" fill="white"/>
<path d="M258.326 101.406L260.468 107.167L266.271 109.315L260.468 111.448L258.326 117.224L256.169 111.448L250.366 109.315L256.169 107.167L258.326 101.406Z" fill="white"/>
<defs>
<linearGradient id="paint0_linear_2001_514" x1="265.571" y1="149.261" x2="465.739" y2="149.261" gradientUnits="userSpaceOnUse">
<stop stop-color="#E873FF"/>
<stop offset="1" stop-color="#5B2AE1"/>
</linearGradient>
<linearGradient id="paint1_linear_2001_514" x1="61.0588" y1="266.892" x2="261.242" y2="266.892" gradientUnits="userSpaceOnUse">
<stop stop-color="#E873FF"/>
<stop offset="1" stop-color="#5B2AE1"/>
</linearGradient>
</defs>
</svg>
